<svg xmlns="http://www.w3.org/2000/svg" viewBox="0 0 180 180" role="img" aria-label="Orpheus">
  <defs>
    <linearGradient id="orpheusBg" x1="14%" y1="8%" x2="86%" y2="92%">
      <stop offset="0%" stop-color="#1fd2ff" />
      <stop offset="100%" stop-color="#4b6bff" />
    </linearGradient>
  </defs>
  <rect x="6" y="6" width="168" height="168" rx="38" fill="url(#orpheusBg)" />
  <g fill="none" stroke="#fff" stroke-width="8" stroke-linecap="round" stroke-linejoin="round" transform="translate(16 12)">
    <path d="M46 11c-6.2 0-11.2 5-11.2 11.2a11 11 0 0 0 7.9 10.6L38 69.6c-1.3 9 5.6 17 14.7 17H54" />
    <path d="M98 11c6.2 0 11.2 5 11.2 11.2a11 11 0 0 1-7.9 10.6l4.7 36.8c1.3 9-5.6 17-14.7 17H90" />
    <path d="M52 88c0 10 10 18 22 18s22-8 22-18" />
    <path d="M54 23v63" />
    <path d="M66 23v63" />
    <path d="M78 23v63" />
    <path d="M42 23v63" />
    <path d="M90 23v63" />
    <path d="M42 23c0-5.6-5.4-9.8-11-9.8" />
    <path d="M90 23c0-5.6 5.4-9.8 11-9.8" />
  </g>
</svg>
